<?xml version="1.0" encoding="UTF-8"?>
<svg width="32" height="32" viewBox="0 0 32 32" xmlns="http://www.w3.org/2000/svg">
  <defs>
    <linearGradient id="iconGradient" x1="0%" y1="0%" x2="100%" y2="100%">
      <stop offset="0%" style="stop-color:#3B82F6;stop-opacity:1" />
      <stop offset="50%" style="stop-color:#8B5CF6;stop-opacity:1" />
      <stop offset="100%" style="stop-color:#06B6D4;stop-opacity:1" />
    </linearGradient>
  </defs>
  
  <!-- 背景圆形 -->
  <circle cx="16" cy="16" r="15" fill="url(#iconGradient)"/>
  
  <!-- 简化的压缩图标 -->
  <g transform="translate(16, 16)" fill="white">
    <!-- 上方文件 -->
    <rect x="-6" y="-10" width="12" height="6" rx="1" fill="white" opacity="0.9"/>
    <rect x="-4" y="-8" width="8" height="1" rx="0.5" fill="url(#iconGradient)"/>
    <rect x="-4" y="-6" width="6" height="1" rx="0.5" fill="url(#iconGradient)"/>
    
    <!-- 压缩箭头 -->
    <polygon points="-3,-2 0,-6 3,-2 2,-2 2,2 -2,2 -2,-2" fill="white"/>
    <polygon points="-3,6 0,2 3,6 2,6 2,4 -2,4 -2,6" fill="white"/>
    
    <!-- 下方压缩文件 -->
    <rect x="-4" y="8" width="8" height="4" rx="0.5" fill="white" opacity="0.9"/>
    <rect x="-3" y="9" width="6" height="0.5" rx="0.25" fill="url(#iconGradient)"/>
    <rect x="-3" y="10.5" width="4" height="0.5" rx="0.25" fill="url(#iconGradient)"/>
  </g>
</svg> 